<svg id="Capa_1" enable-background="new 0 0 512 512" height="512" viewBox="0 0 512 512" width="512" xmlns="http://www.w3.org/2000/svg"><g><g><path d="m113.793 175.794c-28.864 0-52.347 23.483-52.347 52.347s23.483 52.347 52.347 52.347 52.347-23.483 52.347-52.347c.001-28.864-23.482-52.347-52.347-52.347zm0 89.715c-20.605 0-37.368-16.763-37.368-37.368s16.763-37.368 37.368-37.368 37.368 16.763 37.368 37.368-16.763 37.368-37.368 37.368z"/><path d="m398.207 175.794c-28.864 0-52.348 23.483-52.348 52.347s23.483 52.347 52.348 52.347 52.348-23.483 52.348-52.347-23.483-52.347-52.348-52.347zm0 89.715c-20.605 0-37.368-16.763-37.368-37.368s16.763-37.368 37.368-37.368 37.368 16.763 37.368 37.368-16.763 37.368-37.368 37.368z"/><path d="m117.979 374.494c0 16.004 13.021 29.025 29.025 29.025 16.005 0 29.025-13.021 29.025-29.025 0-16.005-13.021-29.025-29.025-29.025s-29.025 13.021-29.025 29.025zm43.071 0c0 7.745-6.301 14.046-14.046 14.046s-14.046-6.301-14.046-14.046 6.301-14.046 14.046-14.046 14.046 6.301 14.046 14.046z"/><path d="m364.996 345.469c-16.004 0-29.024 13.021-29.024 29.025s13.02 29.025 29.024 29.025 29.025-13.021 29.025-29.025-13.021-29.025-29.025-29.025zm0 43.071c-7.744 0-14.045-6.301-14.045-14.046s6.301-14.046 14.045-14.046c7.745 0 14.046 6.301 14.046 14.046s-6.301 14.046-14.046 14.046z"/><path d="m512 235.547c0-66.469-54.077-120.547-120.546-120.547-40.804 0-76.922 20.389-98.742 51.503-4.264-3.628-9.065-6.643-14.272-8.895 1.453-10.047 7.534-40.012 29.868-58.166 4.341 3.415 9.807 5.46 15.745 5.46 14.069 0 25.516-11.447 25.516-25.516 0-14.07-11.447-25.517-25.516-25.517s-25.517 11.447-25.517 25.517c0 2.695.423 5.292 1.201 7.732-25.976 20.459-33.688 52.743-35.855 66.414-2.578-.36-5.207-.56-7.883-.56s-5.305.2-7.883.56c-2.167-13.671-9.88-45.955-35.855-66.414.778-2.44 1.201-5.037 1.201-7.732 0-14.07-11.447-25.517-25.516-25.517-14.07 0-25.517 11.447-25.517 25.517s11.447 25.516 25.517 25.516c5.939 0 11.405-2.045 15.746-5.46 22.349 18.167 28.419 48.141 29.866 58.167-5.19 2.244-9.976 5.247-14.229 8.858-11.521-16.453-26.947-29.806-44.94-38.802-3.7-1.851-8.198-.351-10.048 3.349-1.85 3.699-.351 8.199 3.349 10.048 17.242 8.621 31.347 21.412 41.38 36.814-6.18 9.08-9.8 20.036-9.8 31.824v172.341c0 12.485 4.063 24.035 10.924 33.414-13.416 16.859-34.092 27.693-57.262 27.693-40.352 0-73.182-32.829-73.182-73.182 0-9.302 1.721-18.364 5.116-26.935 1.512-3.819-.333-8.143-4.136-9.694-39.942-16.281-65.751-54.667-65.751-97.794 0-58.21 47.357-105.568 105.568-105.568 5.369 0 10.761.406 16.028 1.208 4.091.62 7.909-2.188 8.531-6.277s-2.188-7.909-6.277-8.531c-6.009-.915-12.16-1.378-18.281-1.378-66.471.003-120.548 54.081-120.548 120.55 0 46.858 26.68 88.814 68.559 108.786-2.515 8.277-3.787 16.87-3.787 25.636 0 48.612 39.549 88.161 88.161 88.161 27.182 0 51.522-12.373 67.707-31.775 9.706 7.761 21.996 12.417 35.361 12.417 13.364 0 25.654-4.656 35.36-12.416 16.185 19.402 40.526 31.774 67.708 31.774 48.612 0 88.16-39.549 88.16-88.161 0-8.767-1.272-17.361-3.787-25.636 41.878-19.972 68.558-61.928 68.558-108.786zm-187.946-166.698c5.81 0 10.537 4.727 10.537 10.537s-4.727 10.537-10.537 10.537-10.537-4.727-10.537-10.537c-.001-5.81 4.726-10.537 10.537-10.537zm-136.107 21.074c-5.81 0-10.537-4.727-10.537-10.537s4.727-10.537 10.537-10.537 10.537 4.727 10.537 10.537c0 5.811-4.726 10.537-10.537 10.537zm109.803 277.082h-14.598c-4.137 0-7.49 3.353-7.49 7.49 0 4.136 3.353 7.49 7.49 7.49h14.598v.059c0 23.021-18.729 41.75-41.75 41.75s-41.75-18.729-41.75-41.75v-.059h34.212c4.136 0 7.49-3.353 7.49-7.49 0-4.136-3.353-7.49-7.49-7.49h-34.212v-40.769h83.5zm0-55.749h-83.5v-30.768h83.5zm0-45.747h-83.5v-40.769h83.5zm0-55.748h-83.5v-.06c0-23.021 18.729-41.75 41.75-41.75s41.75 18.729 41.75 41.75zm133.52 123.58c-3.803 1.551-5.648 5.875-4.136 9.694 3.394 8.568 5.115 17.63 5.115 26.934 0 40.352-32.829 73.182-73.181 73.182-23.172 0-43.842-10.84-57.258-27.7 6.858-9.379 10.92-20.925 10.92-33.408v-172.341c0-11.739-3.588-22.652-9.72-31.709 18.858-28.88 51.454-48.013 88.444-48.013 58.21 0 105.567 47.357 105.567 105.568 0 43.126-25.809 81.513-65.751 97.793z"/></g></g></svg>